<svg xmlns="http://www.w3.org/2000/svg" xmlns:xlink="http://www.w3.org/1999/xlink" version="1.1" x="0px" y="0px" viewBox="0 0 100 125" style="enable-background:new 0 0 100 100;" xml:space="preserve"><g style="" display="none"><rect x="-306.877" y="-65.377" style="" width="1373.931" height="848.958" display="inline" fill="#BDACAF"/></g><g><path d="M69.089,37.643v-4.795h-4.795c-2.171,0-3.93,1.76-3.93,3.93v4.795h4.795C67.329,41.573,69.089,39.813,69.089,37.643z"/><path d="M35.41,41.573h4.795v-4.795c0-2.171-1.76-3.93-3.93-3.93h-4.795v4.795C31.479,39.813,33.239,41.573,35.41,41.573z"/><polygon points="53.716,42.616 50.284,39.379 46.853,42.616 50.284,48.479  "/><path d="M84.31,60.593c0.898-6.286,0.786-12.667,0.246-18.982c-0.045-0.526-0.093-1.051-0.144-1.576   c-0.583-6.053-1.595-11.856-4.643-17.213c-1.37-2.408-3.034-4.665-4.976-6.729c4.305-1.374,7.425-5.403,7.424-10.164h-10.67v7.108   C65.261,7.833,57.432,5,49.165,5c-7.49,0-14.434,2.362-20.144,6.368l0-5.439h-10.67c0,4.154,2.378,7.744,5.843,9.507   c-0.044,0.044-0.088,0.089-0.132,0.134c-5.937,6.06-9.036,14.352-9.036,22.836V95h31.229C65.341,93.867,81.579,79.71,84.31,60.593z    M49.165,12.162c4.386,0,8.607,1.027,12.423,2.92c-4.275,0.42-8.188,2.141-11.305,4.79c-3.591-3.052-8.236-4.878-13.278-4.893   C40.69,13.192,44.805,12.162,49.165,12.162z M37.193,22.14c5.461,0.1,10.122,3.462,12.125,8.218   c0.367,0.872,1.565,0.87,1.932-0.002c2.246-5.333,7.834-8.912,14.145-8.106c5.799,0.74,10.565,5.346,11.487,11.119   c1.233,7.725-4.189,14.648-11.445,15.628H36.188V48.96c-7.257-0.404-12.981-6.551-12.664-13.98   C23.83,27.812,30.02,22.008,37.193,22.14z M22.969,87.375L22.35,53.101c9.422,2.556,16.318,9.227,16.456,16.845   C38.943,77.564,32.293,84.48,22.969,87.375z M36.955,87.92c5.679-4.72,9.137-11.109,9.011-18.103   c-0.091-5.063-2.045-9.745-5.331-13.657h24.802c0.927,0,1.812-0.176,2.625-0.496c3.708-0.817,7.012-2.643,9.66-5.143   c0.087,3.014-0.069,6.043-0.5,9.06c-2.308,16.157-16.681,28.34-33.433,28.34H36.955z"/></g></svg>